<?xml version="1.0" encoding="utf-8"?>
<!-- Generator: Adobe Illustrator 18.1.1, SVG Export Plug-In . SVG Version: 6.00 Build 0)  -->
<!DOCTYPE svg PUBLIC "-//W3C//DTD SVG 1.1//EN" "http://www.w3.org/Graphics/SVG/1.1/DTD/svg11.dtd">
<svg version="1.1" id="Layer_1" xmlns="http://www.w3.org/2000/svg" xmlns:xlink="http://www.w3.org/1999/xlink" x="0px" y="0px"
	 viewBox="167.5 538.8 304.9 58.5" enable-background="new 167.5 538.8 304.9 58.5" xml:space="preserve">
<g>
	<g>
		<path fill="#FFFFFF" d="M464.3,566.7c-4.6-3.3-19.8-5.2-19.8-5.2s-6.7-3.9-16.1-7.4c-2-0.8-4-1.2-6.1-1.6
			c-3.3-0.5-6.8-0.8-10.4-0.8c-4.3,0-8.7,0.5-12.7,1.4c-4.8,1.2-9.4,3.3-13.8,5.4c0,0-4.1,0.4-5.1,0.4s-2,0.4-2.1,1.7
			c0,0.2-0.1,0.5-0.1,0.9c0.8,0,5.6,0.2,6.8,0.3c1.3,0.2-1,1.6-2.1,2.7c-1.1,1-4.3,0.8-4.9,0.7c-0.2,1.7-0.2,3.3-0.2,3.3
			s-1.5,0.8-2,1.6c-0.5,0.8,0.2,5.6,1.5,6.1c0.6,0.2,3,1,5.9,1.7c0-0.2,0-0.3,0-0.5c0-6.4,5.2-11.6,11.6-11.6
			c6.4,0,11.6,5.2,11.6,11.6c0,0.9-0.2,1.7-0.3,2.7c5.2,0,10.4,0,12.7,0c1.7,0,9.6,0,18.2,0c-0.2-0.8-0.3-1.7-0.3-2.7
			c0-6.4,5.2-11.6,11.6-11.6c6.4,0,11.6,5.2,11.6,11.6c0,0.9-0.2,1.7-0.3,2.7c2.7,0,4.4,0,4.6,0c1.5,0,3.9-0.5,3.9-2.2
			C467.7,576,466.8,568.6,464.3,566.7z M395.8,560.3c0,0,4.7-5.5,16-5.5l0.9,6.8L395.8,560.3z M417.7,561.9l-1.1-7
			c0,0,7.4,0,11.9,1.8c4.4,1.8,10.8,6.5,10.8,6.5L417.7,561.9z M456,566.4c0,0,3.2,0.3,5.2,0.9c2.3,0.7,3.2,3.2,3.2,3.2
			C462.3,570.3,456,566.4,456,566.4z"/>
		<path d="M467.1,562.9c-4.9-3.4-17-5.3-21.1-5.9c-2.1-1.2-8.1-4.3-16-7.3c-2.1-0.8-4.3-1.4-7-1.8c-3.7-0.6-7.4-0.9-11.2-0.9
			c-4.9,0-9.6,0.5-13.8,1.6c-4.9,1.2-9.6,3.3-14,5.4c-1.7,0.2-3.4,0.3-3.8,0.3c-3.6,0-6.4,2.3-6.8,5.8c-0.2,0.9-0.4,3.7-0.5,5.9
			c-0.5,0.5-1.1,1-1.4,1.7c-2,3.1,0,8.7,0,8.7c0.8,2.3,2.2,3.8,4,4.4c0.1,0,4.2,1.4,9,2.6c2,3.5,5.8,5.8,10,5.8
			c3.6,0,6.8-1.7,8.9-4.2h15.1h20.5c2.1,2.6,5.3,4.2,8.9,4.2s6.8-1.7,8.9-4.2h7c5.1,0,8.7-2.9,8.7-7
			C472.5,577.7,472.3,566.5,467.1,562.9z M394.5,584.2c-3.8,0-6.8-3-6.8-6.8c0-3.8,3-6.8,6.8-6.8s6.8,3,6.8,6.8
			C401.3,581.2,398.3,584.2,394.5,584.2z M447.9,584.2c-3.8,0-6.8-3-6.8-6.8c0-3.8,3-6.8,6.8-6.8s6.8,3,6.8,6.8
			C454.7,581.2,451.7,584.2,447.9,584.2z M463.9,580c-0.3,0-2.1,0-4.6,0c0.2-0.8,0.3-1.7,0.3-2.7c0-6.4-5.2-11.6-11.6-11.6
			s-11.6,5.2-11.6,11.6c0,0.9,0.2,1.7,0.3,2.7c-8.7,0-16.4,0-18.2,0c-2.3,0-7.5,0-12.7,0c0.2-0.8,0.3-1.7,0.3-2.7
			c0-6.4-5.2-11.6-11.6-11.6c-6.4,0-11.6,5.2-11.6,11.6c0,0.2,0,0.3,0,0.5c-2.9-0.8-5.3-1.5-5.9-1.7c-1.4-0.5-2-5.4-1.5-6.1
			c0.5-0.8,2-1.6,2-1.6s0.1-1.5,0.2-3.3c0.7,0.1,3.9,0.3,4.9-0.7c1.2-1.1,3.4-2.5,2.1-2.7c-1.2-0.2-6-0.3-6.8-0.3
			c0-0.4,0.1-0.7,0.1-0.9c0.2-1.3,1.1-1.7,2.1-1.7c1,0,5.1-0.4,5.1-0.4c4.4-2.1,9-4.3,13.8-5.4c4-1,8.4-1.4,12.7-1.4
			c3.5,0,7.1,0.3,10.4,0.8c2.1,0.4,4.1,0.8,6.1,1.6c9.4,3.5,16.1,7.4,16.1,7.4s15.2,1.9,19.8,5.2c2.5,1.7,3.4,9.3,3.4,11
			C467.7,579.6,465.4,580,463.9,580z"/>
		<path d="M416.7,554.8l1.1,7l21.6,1.3c0,0-6.4-4.6-10.8-6.5C424.1,554.8,416.7,554.8,416.7,554.8z"/>
		<path d="M395.8,560.3l17,1.3l-0.9-6.8C400.5,554.7,395.8,560.3,395.8,560.3z"/>
		<path d="M461.1,567.2c-1.9-0.6-5.2-0.9-5.2-0.9s6.3,4,8.4,4C464.3,570.4,463.3,567.9,461.1,567.2z"/>
		<path fill="#FFFFFF" d="M401.3,577.4c0-3.8-3-6.8-6.8-6.8s-6.8,3-6.8,6.8c0,3.8,3,6.8,6.8,6.8S401.3,581.2,401.3,577.4z
			 M391.3,577.4c0-1.7,1.4-3.2,3.2-3.2s3.2,1.4,3.2,3.2c0,1.7-1.4,3.2-3.2,3.2C392.7,580.6,391.3,579.1,391.3,577.4z"/>
		<circle cx="394.5" cy="577.4" r="3.2"/>
		<path fill="#FFFFFF" d="M454.7,577.4c0-3.8-3-6.8-6.8-6.8s-6.8,3-6.8,6.8c0,3.8,3,6.8,6.8,6.8S454.7,581.2,454.7,577.4z
			 M444.7,577.4c0-1.7,1.4-3.2,3.2-3.2s3.2,1.4,3.2,3.2c0,1.7-1.4,3.2-3.2,3.2S444.7,579.1,444.7,577.4z"/>
		<circle cx="447.9" cy="577.4" r="3.2"/>
	</g>
	<g>
		<path fill="#009845" d="M379.9,588.3c-11.1-0.5-15.5-6.5-16.7-8.5v-33.9c0-3.9-3.2-7-7-7H244.7c-3.9,0-7,3.2-7,7v44.5
			c0,3.9,3.2,7,7,7h111.4c3.5,0,6.5-2.7,6.9-6C370.1,592.7,375.8,591.3,379.9,588.3z"/>
		<g>
			<path fill="#FFFFFF" d="M247.7,580.9V551h7.2v23.6h11.6v6.3H247.7z"/>
			<path fill="#FFFFFF" d="M275.9,553.2c0,0.5-0.1,1.1-0.3,1.5c-0.2,0.5-0.5,0.8-0.8,1.2c-0.4,0.3-0.8,0.6-1.3,0.8
				c-0.5,0.2-1,0.3-1.5,0.3c-1.1,0-2.1-0.4-2.8-1.1c-0.8-0.8-1.1-1.7-1.1-2.7c0-0.5,0.1-1,0.3-1.4c0.2-0.5,0.5-0.8,0.8-1.2
				c0.4-0.3,0.8-0.6,1.3-0.8c0.5-0.2,1-0.3,1.6-0.3c0.5,0,1.1,0.1,1.5,0.3c0.5,0.2,0.9,0.5,1.3,0.8c0.4,0.3,0.6,0.8,0.8,1.2
				C275.8,552.2,275.9,552.7,275.9,553.2z"/>
			<rect x="268.5" y="559.9" fill="#FFFFFF" width="6.9" height="21"/>
			<path fill="#FFFFFF" d="M293.7,580.9v-11.5c0-0.6-0.1-1.1-0.2-1.7c-0.1-0.5-0.2-1-0.5-1.4c-0.2-0.4-0.5-0.8-0.9-1
				s-0.9-0.4-1.5-0.4c-0.6,0-1.1,0.2-1.6,0.4s-0.8,0.5-1.1,1c-0.3,0.5-0.5,0.9-0.7,1.4c-0.2,0.5-0.2,1.1-0.2,1.7v11.4h-6.9v-20.9
				h6.7v2.9h0.1c0.2-0.5,0.6-0.9,1-1.3c0.4-0.5,0.9-0.8,1.4-1.1c0.5-0.3,1.1-0.5,1.8-0.8c0.7-0.2,1.4-0.3,2.1-0.3
				c1.4,0,2.6,0.2,3.6,0.8c1,0.5,1.7,1.1,2.4,2c0.6,0.8,1.1,1.7,1.3,2.7c0.2,1.1,0.4,2.1,0.4,3.1v13H293.7z"/>
			<path fill="#FFFFFF" d="M327,578.9c0,2.1-0.3,3.8-0.9,5.3c-0.6,1.5-1.4,2.7-2.5,3.8c-1.1,1-2.4,1.7-3.9,2.2
				c-1.5,0.5-3.2,0.8-5.1,0.8c-1.8,0-3.7-0.3-5.7-0.8c-2-0.5-3.6-1.4-5.1-2.4l3.5-4.9c1,0.9,2.1,1.6,3.3,2c1.2,0.5,2.4,0.7,3.6,0.7
				c2.1,0,3.5-0.5,4.5-1.6c1-1.1,1.4-2.5,1.4-4.3v-1.3H320c-0.7,0.8-1.5,1.5-2.6,2.1c-1.1,0.5-2.4,0.8-3.7,0.8c-1.6,0-3-0.3-4.3-0.8
				c-1.2-0.6-2.3-1.4-3.1-2.4c-0.8-1-1.5-2.1-2-3.4c-0.5-1.3-0.7-2.7-0.7-4.2c0-1.4,0.2-2.9,0.7-4.2c0.5-1.3,1.1-2.5,2-3.5
				c0.8-1,1.9-1.8,3.1-2.4c1.2-0.6,2.7-0.9,4.3-0.9c1.3,0,2.6,0.3,3.8,0.8s2.2,1.4,2.9,2.5h0.1v-2.7h6.5L327,578.9L327,578.9z
				 M320.4,570.3c0-0.7-0.2-1.4-0.4-2.1c-0.2-0.6-0.6-1.2-1.1-1.7s-1-0.9-1.6-1.1c-0.6-0.3-1.3-0.5-2.1-0.5c-0.8,0-1.5,0.2-2.1,0.5
				c-0.6,0.3-1.1,0.7-1.5,1.1c-0.5,0.5-0.8,1.1-1,1.7c-0.2,0.7-0.3,1.4-0.3,2.1c0,0.7,0.1,1.4,0.3,2.1c0.2,0.7,0.5,1.2,1,1.7
				c0.5,0.5,0.9,0.9,1.5,1.2c0.6,0.3,1.3,0.5,2.1,0.5c0.8,0,1.5-0.2,2.1-0.5c0.6-0.3,1.1-0.7,1.6-1.1s0.8-1.1,1-1.7
				C320.3,571.7,320.4,571,320.4,570.3z"/>
			<path fill="#FFFFFF" d="M353.7,570.3c0,1.7-0.3,3.3-0.9,4.6c-0.6,1.4-1.4,2.6-2.5,3.6c-1.1,1-2.3,1.7-3.7,2.3
				c-1.4,0.5-2.9,0.8-4.5,0.8c-1.6,0-3-0.3-4.5-0.8c-1.4-0.5-2.7-1.3-3.7-2.3c-1.1-1-1.9-2.1-2.5-3.6c-0.6-1.4-0.9-3-0.9-4.6
				c0-1.7,0.3-3.3,0.9-4.6c0.6-1.4,1.4-2.5,2.5-3.5c1.1-1,2.3-1.7,3.7-2.2c1.4-0.5,2.9-0.8,4.5-0.8c1.6,0,3.1,0.2,4.5,0.8
				s2.7,1.2,3.7,2.2c1.1,1,1.9,2.1,2.5,3.5C353.4,567,353.7,568.6,353.7,570.3z M347,570.3c0-0.7-0.1-1.4-0.3-2s-0.5-1.2-1-1.7
				c-0.5-0.5-0.9-0.9-1.6-1.2c-0.6-0.3-1.4-0.5-2.1-0.5c-0.8,0-1.5,0.2-2.1,0.5c-0.6,0.3-1.1,0.7-1.5,1.2c-0.4,0.5-0.7,1.1-0.9,1.7
				c-0.2,0.7-0.3,1.3-0.3,2c0,0.7,0.1,1.4,0.3,2c0.2,0.7,0.5,1.2,0.9,1.7c0.5,0.5,0.9,0.9,1.6,1.2c0.6,0.3,1.4,0.5,2.1,0.5
				c0.8,0,1.5-0.2,2.1-0.5c0.6-0.3,1.1-0.8,1.6-1.2c0.5-0.5,0.8-1.1,0.9-1.7C346.9,571.7,347,571,347,570.3z"/>
		</g>
	</g>
	<g>
		<polygon points="370,543.7 370,539.5 368.4,539.5 368.4,538.8 372.5,538.8 372.5,539.5 370.8,539.5 370.8,543.7 		"/>
		<polygon points="373.6,543.7 373.6,538.8 374.8,538.8 376,542.7 377.2,538.8 378.4,538.8 378.4,543.7 377.7,543.7 377.7,539.5 
			376.4,543.7 375.6,543.7 374.3,539.5 374.3,543.7 		"/>
	</g>
	<g>
		<path d="M190.2,580.4c-2,0.9-4.2,1.3-6.7,1.3c-2.3,0-4.4-0.4-6.4-1.1c-2-0.8-3.6-1.8-5.1-3.2s-2.6-3-3.3-5c-0.8-2-1.2-4.1-1.2-6.4
			c0-2.4,0.4-4.6,1.2-6.5c0.8-1.9,2-3.6,3.4-4.9c1.4-1.4,3.2-2.4,5.2-3.1c2-0.8,4.1-1.1,6.4-1.1c2.1,0,4.2,0.4,6.2,1.1
			c2.1,0.8,3.7,1.8,4.9,3.3l-4.9,4.9c-0.7-0.9-1.6-1.6-2.7-2.1s-2.2-0.7-3.3-0.7c-1.3,0-2.4,0.2-3.5,0.7c-1.1,0.5-2,1.1-2.7,1.9
			c-0.8,0.8-1.4,1.7-1.7,2.9c-0.5,1.1-0.6,2.4-0.6,3.6c0,1.4,0.2,2.6,0.6,3.7c0.5,1.1,1,2.1,1.7,2.9c0.8,0.8,1.7,1.4,2.7,1.9
			c1.1,0.5,2.2,0.7,3.4,0.7c1.4,0,2.7-0.3,3.7-0.8c1.1-0.5,1.9-1.3,2.6-2.2l5,4.7C193.8,578.3,192.2,579.5,190.2,580.4z"/>
		<path d="M195.7,562.8c1.2-1.1,2.7-2.1,4.3-2.7c1.7-0.6,3.3-0.9,5-0.9c1.7,0,3.3,0.2,4.5,0.7c1.2,0.5,2.2,1.1,3,2.1
			c0.8,0.9,1.3,2.1,1.7,3.4c0.4,1.4,0.5,3,0.5,4.9v10.6h-6.3v-2.2h-0.1c-0.5,0.8-1.4,1.5-2.4,2.1c-1.1,0.5-2.3,0.7-3.5,0.7
			c-0.8,0-1.7-0.1-2.6-0.3c-0.9-0.2-1.7-0.6-2.4-1.1c-0.8-0.5-1.4-1.2-1.8-2.1c-0.5-0.8-0.7-1.9-0.7-3.1c0-1.5,0.4-2.7,1.2-3.6
			s1.9-1.7,3.2-2.1c1.3-0.5,2.7-0.8,4.3-1s3.2-0.2,4.7-0.2v-0.3c0-1.1-0.4-1.8-1.1-2.3c-0.8-0.5-1.6-0.8-2.7-0.8
			c-1,0-1.9,0.2-2.8,0.6c-0.9,0.5-1.7,0.9-2.4,1.5L195.7,562.8z M208.4,571.8h-0.8c-0.8,0-1.5,0-2.3,0.1c-0.8,0.1-1.4,0.2-2.1,0.4
			c-0.6,0.2-1.1,0.5-1.5,0.8s-0.6,0.9-0.6,1.5c0,0.4,0.1,0.8,0.3,1c0.2,0.3,0.4,0.5,0.7,0.7c0.3,0.2,0.6,0.3,1,0.4
			c0.4,0.1,0.7,0.1,1.1,0.1c1.4,0,2.5-0.4,3.2-1.1c0.8-0.8,1.1-1.8,1.1-3.1L208.4,571.8L208.4,571.8z"/>
		<path d="M232.4,565.6c-0.3-0.1-0.6-0.2-0.9-0.2c-0.3,0-0.6-0.1-0.8-0.1c-0.9,0-1.7,0.2-2.4,0.5c-0.6,0.3-1.1,0.8-1.5,1.2
			c-0.4,0.5-0.7,1-0.8,1.5c-0.2,0.5-0.2,1.1-0.2,1.4v10.8h-6.9v-21h6.7v3h0.1c0.5-1.1,1.3-2,2.3-2.7c1-0.7,2.1-1,3.4-1
			c0.3,0,0.5,0,0.8,0.1c0.3,0,0.5,0.1,0.7,0.2L232.4,565.6z"/>
	</g>
</g>
</svg>
